<?xml version="1.0" encoding="iso-8859-1"?>
<!-- Generator: Adobe Illustrator 18.0.0, SVG Export Plug-In . SVG Version: 6.00 Build 0)  -->
<!DOCTYPE svg PUBLIC "-//W3C//DTD SVG 1.1//EN" "http://www.w3.org/Graphics/SVG/1.1/DTD/svg11.dtd">
<svg version="1.1" id="Capa_1" xmlns="http://www.w3.org/2000/svg" xmlns:xlink="http://www.w3.org/1999/xlink" x="0px" y="0px"
	 viewBox="0 0 288.398 288.398" style="enable-background:new 0 0 288.398 288.398;" fill="white" xml:space="preserve">
<path d="M203.524,12.833c-22.57,0-43.743,8.976-59.325,24.196c-15.582-15.221-36.755-24.196-59.325-24.196
	C38.074,12.833,0,50.907,0,97.706c0,37.746,13.758,71.201,43.298,105.288c18.271,21.082,59.213,50.819,81.992,66.67
	c5.655,3.935,12.28,5.901,18.908,5.901s13.257-1.968,18.913-5.903c22.777-15.849,63.716-45.584,81.989-66.668
	c29.54-34.087,43.298-67.542,43.298-105.288C288.398,50.907,250.324,12.833,203.524,12.833z M214.872,176.797
	c-10.687,12.332-36.941,33.596-70.673,57.281V105.293c0.954-7.98,3.596-17.927,10.167-27.079
	c12.953-18.041,31.422-25.381,49.158-25.381c24.743,0,44.874,20.13,44.874,44.873C248.398,125.272,237.745,150.404,214.872,176.797z
	"/>
<g>
</g>
<g>
</g>
<g>
</g>
<g>
</g>
<g>
</g>
<g>
</g>
<g>
</g>
<g>
</g>
<g>
</g>
<g>
</g>
<g>
</g>
<g>
</g>
<g>
</g>
<g>
</g>
<g>
</g>
</svg>
