<?xml version="1.0" encoding="utf-8"?>
<!-- Generator: Adobe Illustrator 22.1.0, SVG Export Plug-In . SVG Version: 6.00 Build 0)  -->
<svg version="1.1" id="Layer_1" xmlns="http://www.w3.org/2000/svg" xmlns:xlink="http://www.w3.org/1999/xlink" x="0px" y="0px"
	 viewBox="0 0 330.5 264.5" style="enable-background:new 0 0 330.5 264.5;" xml:space="preserve">
<style type="text/css">
	.st0{fill:#CCCCCC;}
	.st1{fill:#00BCD4;}
	.st2{fill:#FD6687;}
	.st3{fill:#8A8DAA;}
</style>
<title>logo</title>
<ellipse class="st0" cx="165" cy="259" rx="82.5" ry="5.5"/>
<path class="st1" d="M300.1,164.2l-5.8,5.8l-9.3,8.5c-2.8,2.5-6.8,5.5-10.2,8.4l-12.7,9.1l-54.3,36L165,258l8.1-48.5l9.8-64.1
	l1.9-15.5c0.2-4.4,0.8-9.3,0.9-13.1l0.3-12.5l-0.1-9.8h0.1c0.1-21.9-7.4-43.1-21.2-60.1l0.1,0C182.5,12.6,209,0,237,0
	c51.6,0,93.5,42.3,93.5,94.5C330.6,121,319.5,146.2,300.1,164.2z M267.2,94.5c0-16.8-13.3-30.5-29.7-30.5s-29.7,13.7-29.7,30.5
	s13.3,30.5,29.7,30.5S267.2,111.3,267.2,94.5z"/>
<path class="st2" d="M156.5,209.5L165,258l-43-26l-54-36l-12.7-9.1C52,184,48,181,45.2,178.5L36,170l-7-7l0,0
	c-18.6-18-29-42.7-29-68.5C0,42.3,41.6,0,93,0c27.9,0,54.3,12.7,71.8,34.4l0.1,0c-13.8,17-21.4,38.2-21.3,60.1h0.1l-0.1,9.8
	l0.3,12.5c0.1,3.7,0.6,8.7,0.9,13.1l1.9,15.5L156.5,209.5z M122,94.5C122,77.7,108.8,64,92.5,64S63,77.7,63,94.5S76.2,125,92.5,125
	S122,111.3,122,94.5z"/>
<path class="st3" d="M185.9,94.5l0.1,9.8l-0.3,12.5c-0.1,3.7-0.7,8.7-0.9,13.1l-1.9,15.5l-9.8,64.1L165,258l-8.5-48.5l-9.9-64.1
	l-1.9-15.5c-0.2-4.4-0.8-9.3-0.9-13.1l-0.3-12.5l0.1-9.8h-0.1c0-21.9,7.5-43.1,21.3-60C178.6,51.4,186.1,72.6,185.9,94.5L185.9,94.5
	z"/>
</svg>
