<?xml version="1.0" encoding="iso-8859-1"?>
<!-- Generator: Adobe Illustrator 19.0.0, SVG Export Plug-In . SVG Version: 6.00 Build 0)  -->
<svg version="1.1" id="Layer_1" xmlns="http://www.w3.org/2000/svg" xmlns:xlink="http://www.w3.org/1999/xlink" x="0px" y="0px"
	 viewBox="0 0 512 512" style="enable-background:new 0 0 512 512;" xml:space="preserve">
<g>
	<path style="fill:#ECF0F1;" d="M406.069,512H105.931c-9.746,0-17.655-7.91-17.655-17.655V17.655C88.276,7.91,96.185,0,105.931,0
		h300.138c9.746,0,17.655,7.91,17.655,17.655v476.69C423.724,504.09,415.815,512,406.069,512"/>
	<path style="fill:#B1B4B5;" d="M406.069,0h-26.483c9.746,0,17.655,7.91,17.655,17.655v476.69c0,9.746-7.91,17.655-17.655,17.655
		h26.483c9.746,0,17.655-7.91,17.655-17.655V17.655C423.724,7.91,415.815,0,406.069,0"/>
	<path style="fill:#F4F7F7;" d="M105.931,512h26.483c-9.746,0-17.655-7.91-17.655-17.655V17.655C114.759,7.91,122.668,0,132.414,0
		h-26.483c-9.746,0-17.655,7.91-17.655,17.655v476.69C88.276,504.09,96.185,512,105.931,512"/>
	<g>
		<path style="fill:#BDC3C7;" d="M326.621,344.276H185.379c-4.873,0-8.828-3.955-8.828-8.828s3.955-8.828,8.828-8.828h141.241
			c4.873,0,8.828,3.955,8.828,8.828S331.494,344.276,326.621,344.276"/>
		<path style="fill:#BDC3C7;" d="M194.207,397.241h-52.966c-4.873,0-8.828-3.955-8.828-8.828s3.955-8.828,8.828-8.828h52.966
			c4.873,0,8.828,3.955,8.828,8.828S199.08,397.241,194.207,397.241"/>
		<path style="fill:#BDC3C7;" d="M211.862,432.552h-70.621c-4.873,0-8.828-3.955-8.828-8.828c0-4.873,3.955-8.828,8.828-8.828
			h70.621c4.873,0,8.828,3.955,8.828,8.828C220.69,428.597,216.735,432.552,211.862,432.552"/>
		<path style="fill:#BDC3C7;" d="M353.103,432.552h-52.966c-4.873,0-8.828-3.955-8.828-8.828c0-4.873,3.955-8.828,8.828-8.828
			h52.966c4.873,0,8.828,3.955,8.828,8.828C361.931,428.597,357.976,432.552,353.103,432.552"/>
		<path style="fill:#BDC3C7;" d="M370.759,397.241h-70.621c-4.873,0-8.828-3.955-8.828-8.828s3.955-8.828,8.828-8.828h70.621
			c4.873,0,8.828,3.955,8.828,8.828S375.631,397.241,370.759,397.241"/>
	</g>
	<polygon style="fill:#556080;" points="150.069,512 361.931,512 361.931,476.69 150.069,476.69 	"/>
	<path style="fill:#136255;" d="M311.742,245.556l-28.875-14.813c-2.94-1.51-4.793-4.546-4.793-7.857v-3.919
		c0-1.704,1.006-3.204,2.534-3.955c13.647-6.78,22.466-18.865,26.439-33.757c6.365-1.977,10.752-7.857,10.752-14.848v-7.812
		c0-5.976-3.143-11.132-8.113-13.753c-3.443-29.361-22.855-41.242-54.042-41.242c-1.43,0-2.825,0.053-4.202,0.159
		c-10.628,0.821-21.451-1.121-30.296-7.089c-3.663-2.472-6.674-5.155-8.916-7.848c-0.918-1.095-2.975-0.459-2.79,1.139
		c0.265,2.322,0.644,4.979,1.174,7.857c1.474,7.989,0.071,16.154-3.16,23.605c-3.072,7.08-5.032,15.016-5.906,23.446
		c-4.935,2.631-7.336,7.777-7.336,13.727v7.812c0,6.991,3.663,12.871,10.019,14.848c3.981,14.892,13.444,26.977,27.162,33.757
		c1.527,0.75,2.542,2.26,2.542,3.964v3.549c0,3.363-1.916,6.435-4.935,7.918l-30.27,14.91c-8.227,4.493-13.347,13.109-13.347,22.484
		v7.15v3.196c0,0.221,0.026,0.477,0.071,0.75c20.224,13.391,44.465,21.204,70.55,21.204c26.077,0,50.317-7.812,70.541-21.204
		c0.044-0.274,0.079-0.53,0.079-0.75v-3.196v-6.515C326.625,258.762,320.419,249.899,311.742,245.556"/>
	<path style="fill:#25C3AB;" d="M256,35.31c-73.128,0-132.414,59.286-132.414,132.414c0,47.042,24.806,87.79,61.855,111.086
		c-0.035-0.221-0.062-0.441-0.062-0.627v-3.196v-7.15c0-9.375,5.12-17.991,13.347-22.484l30.279-14.91
		c3.019-1.483,4.926-4.555,4.926-7.918v-3.549c0-1.713-1.006-3.213-2.542-3.964c-13.718-6.78-23.172-18.865-27.154-33.757
		c-6.365-1.977-10.028-7.857-10.028-14.848v-7.812c0-5.95,2.392-11.105,7.336-13.727c0.883-8.43,2.842-16.366,5.906-23.446
		c3.231-7.45,4.643-15.616,3.16-23.605c-0.53-2.887-0.909-5.535-1.165-7.865c-0.185-1.589,1.871-2.233,2.781-1.13
		c2.251,2.692,5.252,5.376,8.925,7.848c8.845,5.959,19.659,7.91,30.296,7.089c1.368-0.106,2.772-0.159,4.193-0.159
		c31.197,0,50.6,11.882,54.042,41.234c4.97,2.622,8.113,7.786,8.113,13.762v7.812c0,6.991-4.387,12.871-10.743,14.848
		c-3.981,14.892-12.8,26.977-26.447,33.757c-1.518,0.75-2.534,2.251-2.534,3.955v3.919c0,3.31,1.854,6.347,4.793,7.857
		l28.875,14.813c8.678,4.343,14.883,13.206,14.883,22.908v6.524v3.196c0,0.194-0.035,0.433-0.062,0.671
		c37.023-23.349,61.855-64.097,61.855-111.13C388.414,94.596,329.128,35.31,256,35.31"/>
</g>
<g>
</g>
<g>
</g>
<g>
</g>
<g>
</g>
<g>
</g>
<g>
</g>
<g>
</g>
<g>
</g>
<g>
</g>
<g>
</g>
<g>
</g>
<g>
</g>
<g>
</g>
<g>
</g>
<g>
</g>
</svg>
