<svg height="512pt" viewBox="0 0 512 512.08027" width="512pt" xmlns="http://www.w3.org/2000/svg"><path d="m239.089844 273.734375h272.949218v229.519531c-.011718 4.867188-3.957031 8.8125-8.828124 8.828125h-494.34375c-4.867188-.015625-8.8125005-3.960937-8.8281255-8.828125v-229.519531h130.9140625" fill="#b0d3f0"/><path d="m512.039062 194.289062v79.445313h-511.9999995v-79.445313c.015625-4.871093 3.9609375-8.816406 8.8281255-8.828124h494.34375c4.871093.011718 8.816406 3.957031 8.828124 8.828124zm0 0" fill="#3b97d3"/><path d="m512.039062 273.734375v229.519531c-.011718 4.867188-3.957031 8.8125-8.828124 8.828125h-247.171876v-238.347656zm0 0" fill="#90bae1"/><path d="m512.039062 194.289062v79.445313h-256v-88.273437h247.171876c4.871093.011718 8.816406 3.957031 8.828124 8.828124zm0 0" fill="#2980ba"/><path d="m450.246094 44.21875c.042968 11.71875-4.597656 22.964844-12.886719 31.25l-49.875 49.964844-62.5-62.5 49.875-49.964844c12.625-12.65625 31.636719-16.449219 48.152344-9.601562 16.511719 6.84375 27.265625 22.972656 27.234375 40.851562zm0 0" fill="#ff5364"/><path d="m137.667969 250.160156 187.324219-187.234375 62.484374 62.515625-187.324218 187.230469zm0 0" fill="#f0c419"/><path d="m110 329.074219 27.699219-78.867188 62.421875 62.417969-78.867188 27.703125c-3.203125 1.125-6.769531.316406-9.167968-2.085937-2.402344-2.398438-3.210938-5.964844-2.085938-9.167969zm0 0" fill="#cbb292"/><path d="m53.003906 485.597656h-17.652344c-4.875 0-8.828124-3.953125-8.828124-8.828125s3.953124-8.828125 8.828124-8.828125h17.652344c4.878906 0 8.828125 3.953125 8.828125 8.828125s-3.949219 8.828125-8.828125 8.828125zm0 0" fill="#fff"/><path d="m476.730469 485.597656h-388.414063c-4.875 0-8.828125-3.953125-8.828125-8.828125s3.953125-8.828125 8.828125-8.828125h388.414063c4.875 0 8.828125 3.953125 8.828125 8.828125s-3.953125 8.828125-8.828125 8.828125zm0 0" fill="#fff"/><path d="m450.246094 44.21875c.042968 11.71875-4.597656 22.964844-12.886719 31.25l-49.875 49.964844-31.074219-31.074219 81.125-81.125c8.183594 8.230469 12.757813 19.378906 12.710938 30.984375zm0 0" fill="#df4d60"/><path d="m387.484375 125.433594-187.324219 187.230468-30.984375-30.984374 187.234375-187.320313zm0 0" fill="#f29c1f"/><path d="m200.160156 312.664062-78.917968 27.632813c-3.082032 1.148437-6.546876.425781-8.914063-1.855469l56.847656-56.761718zm0 0" fill="#cb9080"/></svg>