<svg height="512pt" viewBox="0 -28 512.00004 512" width="512pt" xmlns="http://www.w3.org/2000/svg"><path d="m202.003906 324.09375h306.414063c3.261719 0 4.800781-3.964844 2.441406-6.21875-16.191406-15.472656-26.28125-37.277344-26.28125-61.441406v-251.386719c0-2.789063-2.257813-5.046875-5.046875-5.046875h-331.339844c-2.785156 0-5.042968 2.257812-5.042968 5.046875v251.386719c0 12.257812 2.59375 23.90625 7.265624 34.429687 9.019532 20.3125 29.367188 33.230469 51.589844 33.230469zm0 0" fill="#ff9ec9"/><path d="m510.859375 317.875c-16.191406-15.472656-26.28125-37.277344-26.28125-61.441406v-251.386719c0-2.789063-2.257813-5.046875-5.046875-5.046875h-53.871094c2.789063 0 5.046875 2.257812 5.046875 5.046875v251.386719c0 24.164062 10.09375 45.96875 26.285157 61.441406 2.355468 2.253906.816406 6.21875-2.445313 6.21875h53.871094c3.261719 0 4.800781-3.964844 2.441406-6.21875zm0 0" fill="#ff88b9"/><path d="m407.394531 169.429688c-10.042969 0-15.414062-3.449219-19.726562-6.21875-3.519531-2.261719-5.84375-3.753907-11.328125-3.753907s-7.808594 1.492188-11.328125 3.753907c-4.316407 2.769531-9.683594 6.21875-19.730469 6.21875-10.042969 0-15.410156-3.449219-19.726562-6.21875-3.519532-2.261719-5.84375-3.753907-11.328126-3.753907-4.289062 0-7.769531-3.480469-7.769531-7.769531 0-4.292969 3.480469-7.769531 7.769531-7.769531 10.046876 0 15.414063 3.445312 19.726563 6.21875 3.523437 2.261719 5.847656 3.753906 11.328125 3.753906 5.484375 0 7.808594-1.492187 11.328125-3.753906 4.316406-2.773438 9.683594-6.21875 19.730469-6.21875 10.042968 0 15.414062 3.445312 19.726562 6.21875 3.519532 2.261719 5.84375 3.753906 11.328125 3.753906s7.808594-1.492187 11.328125-3.753906c4.316406-2.773438 9.683594-6.21875 19.726563-6.21875s15.410156 3.445312 19.726562 6.214843c3.609375 2.320313 4.65625 7.128907 2.335938 10.738282-2.320313 3.609375-7.128907 4.65625-10.738281 2.339844-3.515626-2.261719-5.839844-3.753907-11.324219-3.753907-5.480469 0-7.804688 1.492188-11.328125 3.753907-4.3125 2.769531-9.679688 6.21875-19.726563 6.21875zm0 0" fill="#dd5298"/><path d="m407.394531 236.710938c-10.042969 0-15.414062-3.449219-19.726562-6.222657-3.519531-2.257812-5.84375-3.753906-11.328125-3.753906s-7.808594 1.496094-11.328125 3.753906c-4.316407 2.773438-9.683594 6.222657-19.730469 6.222657-10.042969 0-15.410156-3.449219-19.726562-6.222657-3.519532-2.257812-5.84375-3.753906-11.328126-3.753906-4.289062 0-7.769531-3.476563-7.769531-7.769531 0-4.289063 3.480469-7.769532 7.769531-7.769532 10.046876 0 15.414063 3.449219 19.726563 6.222657 3.523437 2.257812 5.847656 3.753906 11.328125 3.753906 5.484375 0 7.808594-1.496094 11.328125-3.753906 4.316406-2.773438 9.683594-6.222657 19.730469-6.222657 10.042968 0 15.414062 3.449219 19.726562 6.222657 3.519532 2.257812 5.84375 3.753906 11.328125 3.753906 4.292969 0 7.769531 3.476563 7.769531 7.769531 0 4.289063-3.476562 7.769532-7.769531 7.769532zm0 0" fill="#dd5298"/><path d="m58.859375 455.324219h306.410156c3.261719 0 4.800781-3.964844 2.445313-6.214844-16.191406-15.476563-26.28125-37.277344-26.28125-61.441406v-251.386719c0-2.789062-2.257813-5.046875-5.046875-5.046875h-331.339844c-2.789063 0-5.046875 2.257813-5.046875 5.046875v251.386719c0 12.257812 2.597656 23.90625 7.269531 34.429687 9.015625 20.3125 29.363281 33.226563 51.589844 33.226563zm0 0" fill="#ffc50d"/><path d="m367.714844 449.109375c-16.191406-15.476563-26.28125-37.277344-26.28125-61.441406v-251.386719c0-2.789062-2.257813-5.046875-5.046875-5.046875h-53.871094c2.789063 0 5.046875 2.257813 5.046875 5.046875v251.386719c0 24.164062 10.089844 45.964843 26.28125 61.441406 2.359375 2.25.816406 6.214844-2.441406 6.214844h53.867187c3.261719 0 4.804688-3.964844 2.445313-6.214844zm0 0" fill="#ffa300"/><path d="m179.613281 249.191406c-10.046875 0-15.414062-3.449218-19.726562-6.222656-3.523438-2.257812-5.847657-3.753906-11.332031-3.753906-5.484376 0-7.808594 1.496094-11.328126 3.753906-4.3125 2.773438-9.683593 6.222656-19.726562 6.222656s-15.414062-3.449218-19.726562-6.222656c-3.519532-2.257812-5.84375-3.753906-11.328126-3.753906-4.292968 0-7.769531-3.476563-7.769531-7.769532 0-4.292968 3.476563-7.769531 7.769531-7.769531 10.042969 0 15.414063 3.449219 19.726563 6.21875 3.519531 2.261719 5.84375 3.753907 11.328125 3.753907s7.808594-1.492188 11.328125-3.753907c4.3125-2.769531 9.683594-6.21875 19.726563-6.21875 10.046874 0 15.414062 3.449219 19.730468 6.21875 3.519532 2.261719 5.84375 3.753907 11.328125 3.753907s7.808594-1.492188 11.328125-3.753907c4.3125-2.769531 9.683594-6.21875 19.726563-6.21875 10.046875 0 15.410156 3.449219 19.722656 6.21875 3.613281 2.320313 4.65625 7.128907 2.335937 10.738281-2.320312 3.609376-7.125 4.652344-10.734374 2.335938-3.519532-2.257812-5.839844-3.753906-11.324219-3.753906s-7.808594 1.496094-11.328125 3.753906c-4.3125 2.773438-9.683594 6.222656-19.726563 6.222656zm0 0" fill="#ff8b00"/><path d="m241.71875 389.628906c-10.042969 0-15.410156-3.449218-19.726562-6.21875-3.519532-2.261718-5.84375-3.753906-11.328126-3.753906-5.480468 0-7.804687 1.492188-11.324218 3.753906-4.316406 2.769532-9.683594 6.21875-19.730469 6.21875-10.042969 0-15.410156-3.449218-19.726563-6.21875-3.519531-2.261718-5.84375-3.753906-11.328124-3.753906-5.484376 0-7.808594 1.492188-11.328126 3.753906-4.316406 2.769532-9.683593 6.21875-19.730468 6.21875-10.042969 0-15.410156-3.449218-19.726563-6.21875-3.519531-2.261718-5.84375-3.753906-11.328125-3.753906-4.289062 0-7.769531-3.476562-7.769531-7.769531s3.480469-7.769531 7.769531-7.769531c10.046875 0 15.414063 3.449218 19.730469 6.21875 3.519531 2.261718 5.84375 3.753906 11.324219 3.753906 5.484375 0 7.808594-1.492188 11.328125-3.753906 4.316406-2.769532 9.683593-6.21875 19.730469-6.21875 10.042968 0 15.414062 3.449218 19.726562 6.21875 3.519531 2.261718 5.847656 3.753906 11.328125 3.753906 5.484375 0 7.808594-1.492188 11.328125-3.753906 4.316406-2.769532 9.683594-6.21875 19.726562-6.21875 10.046876 0 15.414063 3.449218 19.726563 6.21875 3.519531 2.261718 5.84375 3.753906 11.328125 3.753906s7.808594-1.492188 11.328125-3.753906c4.3125-2.769532 9.683594-6.21875 19.726563-6.21875 4.292968 0 7.773437 3.476562 7.773437 7.769531s-3.480469 7.769531-7.773437 7.769531c-5.480469 0-7.808594 1.492188-11.328126 3.753906-4.3125 2.769532-9.683593 6.21875-19.726562 6.21875zm0 0" fill="#ff8b00"/><path d="m358.425781 106.136719c-10.042969 0-15.410156-3.449219-19.726562-6.21875-3.519531-2.261719-5.84375-3.753907-11.328125-3.753907-5.480469 0-7.804688 1.492188-11.324219 3.753907-4.316406 2.769531-9.683594 6.21875-19.730469 6.21875-10.042968 0-15.410156-3.449219-19.726562-6.21875-3.519532-2.261719-5.84375-3.753907-11.328125-3.753907s-7.808594 1.492188-11.328125 3.753907c-4.316406 2.769531-9.683594 6.21875-19.730469 6.21875-10.042969 0-15.410156-3.449219-19.726563-6.21875-3.519531-2.261719-5.84375-3.753907-11.328124-3.753907-4.289063 0-7.769532-3.476562-7.769532-7.769531s3.480469-7.769531 7.769532-7.769531c10.046874 0 15.414062 3.449219 19.730468 6.21875 3.519532 2.261719 5.84375 3.753906 11.324219 3.753906 5.484375 0 7.808594-1.492187 11.328125-3.753906 4.316406-2.769531 9.683594-6.21875 19.730469-6.21875 10.042969 0 15.414062 3.449219 19.726562 6.21875 3.519531 2.261719 5.847657 3.753906 11.328125 3.753906 5.484375 0 7.808594-1.492187 11.328125-3.753906 4.316407-2.769531 9.683594-6.21875 19.726563-6.21875 10.046875 0 15.414062 3.449219 19.726562 6.21875 3.519532 2.261719 5.84375 3.753906 11.328125 3.753906s7.808594-1.492187 11.328125-3.753906c4.3125-2.769531 9.683594-6.21875 19.726563-6.21875 4.292969 0 7.773437 3.476562 7.773437 7.769531s-3.480468 7.769531-7.773437 7.769531c-5.480469 0-7.808594 1.492188-11.328125 3.753907-4.3125 2.769531-9.683594 6.21875-19.726563 6.21875zm0 0" fill="#dd5298"/><g fill="#ff8b00"><path d="m282.699219 319.226562c-10.042969 0-15.414063-3.449218-19.726563-6.21875-3.519531-2.261718-5.84375-3.753906-11.328125-3.753906s-7.808593 1.492188-11.328125 3.753906c-4.316406 2.769532-9.683594 6.21875-19.730468 6.21875-10.042969 0-15.410157-3.449218-19.722657-6.21875-3.519531-2.261718-5.84375-3.753906-11.328125-3.753906s-7.808594 1.492188-11.328125 3.753906c-4.3125 2.769532-9.683593 6.21875-19.726562 6.21875-10.046875 0-15.414063-3.449218-19.730469-6.21875-3.519531-2.261718-5.84375-3.753906-11.328125-3.753906s-7.808594 1.492188-11.328125 3.753906c-4.3125 2.769532-9.683594 6.21875-19.726562 6.21875-4.828126 0-9.066407-.804687-12.964844-2.464843-3.949219-1.679688-5.789063-6.242188-4.109375-10.191407 1.679687-3.949218 6.246093-5.785156 10.191406-4.105468 1.238281.523437 3.292969 1.222656 6.882813 1.222656 5.484374 0 7.808593-1.492188 11.328124-3.753906 4.3125-2.773438 9.683594-6.21875 19.726563-6.21875 10.046875 0 15.414063 3.445312 19.726563 6.21875 3.523437 2.261718 5.84375 3.753906 11.332031 3.753906 5.484375 0 7.808593-1.492188 11.328125-3.753906 4.3125-2.773438 9.683594-6.21875 19.726562-6.21875 10.042969 0 15.410156 3.445312 19.726563 6.21875 3.519531 2.261718 5.84375 3.753906 11.324219 3.753906 5.484374 0 7.808593-1.492188 11.328124-3.753906 4.316407-2.773438 9.683594-6.21875 19.730469-6.21875 10.042969 0 15.410157 3.445312 19.726563 6.21875 3.519531 2.261718 5.84375 3.753906 11.328125 3.753906s7.808593-1.492188 11.328125-3.753906c4.316406-2.773438 9.6875-6.21875 19.730468-6.21875 4.292969 0 7.769532 3.476562 7.769532 7.769531 0 4.289063-3.476563 7.769531-7.769532 7.769531-5.484374 0-7.808593 1.492188-11.332031 3.753906-4.3125 2.769532-9.683593 6.21875-19.726562 6.21875zm0 0"/><path d="m36.140625 229.605469h-5.371094c-2.488281 0-3.679687-1.242188-3.679687-3.53125 0-2.535157.847656-3.230469 4.824218-3.929688 3.035157-.546875 4.574219-1.9375 5.867188-3.730469 1.59375-2.1875 2.585938-3.382812 4.578125-3.382812 2.535156 0 4.027344 1.097656 4.027344 3.484375v27.449219c0 3.480468-2.140625 5.074218-5.121094 5.074218-2.984375 0-5.125-1.59375-5.125-5.074218zm0 0"/><path d="m52.152344 312.066406c2.984375 0 4.230468 1.542969 4.230468 4.179688 0 2.632812-1.242187 4.175781-4.230468 4.175781h-20.289063c-2.632812 0-4.226562-1.988281-4.226562-4.128906 0-3.082031.746093-4.671875 9.894531-11.039063l4.726562-3.28125c2.4375-1.691406 3.332032-3.082031 3.332032-5.121094 0-2.4375-1.640625-4.03125-4.328125-4.03125-5.667969 0-2.734375 6.914063-8.351563 6.914063-3.582031 0-4.875-1.988281-4.875-4.824219 0-4.773437 4.675782-9.847656 13.527344-9.847656 10.589844 0 14.273438 5.769531 14.273438 11.289062 0 4.175782-2.089844 7.160157-6.515626 9.945313l-9 5.671875v.097656zm0 0"/><path d="m42.109375 375.832031c-3.332031-.246093-4.476563-1.441406-4.476563-3.132812 0-2.636719 1.738282-3.429688 4.078126-3.429688 1.691406 0 3.429687-.996093 3.429687-3.332031 0-2.539062-2.039063-3.382812-4.621094-3.382812-1.890625 0-2.9375.59375-4.378906 2.835937-1.042969 1.589844-1.9375 2.039063-3.480469 2.039063-3.03125 0-4.375-2.339844-4.375-4.425782 0-4.277344 4.824219-7.910156 13.476563-7.910156 7.660156 0 13.027343 3.78125 13.027343 9.796875 0 3.332031-1.488281 5.820313-4.226562 6.765625v.101562c3.332031 1.042969 5.074219 3.925782 5.074219 7.410157 0 4.523437-2.335938 11.933593-15.070313 11.933593-7.957031 0-13.027344-4.328124-13.027344-8.703124 0-2.785157 1.691407-4.773438 4.574219-4.773438 5.371094 0 2.6875 6.015625 8.15625 6.015625 3.480469 0 5.121094-1.242187 5.121094-4.574219 0-2.488281-1.242187-3.085937-3.28125-3.234375zm0 0"/></g></svg>