<svg id="Layer_1" data-name="Layer 1" xmlns="http://www.w3.org/2000/svg" viewBox="0 0 330.5 264.5"><defs><style>.cls-1{fill:#ccc;}.cls-2{fill:#fd6687;}</style></defs><title>pinklogo</title><ellipse class="cls-1" cx="165" cy="259" rx="82.5" ry="5.5"/><path class="cls-2" d="M300.12,164.22,294.31,170,285,178.48c-2.8,2.52-6.82,5.52-10.17,8.37L262.13,196l-54.29,36L165,258l8.06-48.49,9.84-64.15,1.89-15.5c.24-4.37.78-9.34.9-13.07l.31-12.46-.09-9.83H186a95,95,0,0,0-21.21-60.07l.06,0A92.94,92.94,0,0,1,237,0c51.64,0,93.5,42.31,93.5,94.5A94.73,94.73,0,0,1,300.12,164.22Zm-33-69.72c0-16.84-13.28-30.5-29.66-30.5s-29.66,13.66-29.66,30.5S221.12,125,237.5,125,267.16,111.34,267.16,94.5Z" transform="translate(0)"/><path class="cls-2" d="M156.51,209.51,165,258l-43-26L68,196l-12.67-9.15C52,184,48,181,45.22,178.48L36,170l-7-7,0,0A94.93,94.93,0,0,1,0,94.5C0,42.31,41.64,0,93,0a92.26,92.26,0,0,1,71.76,34.39l.06,0A94.71,94.71,0,0,0,143.5,94.5h.09l-.09,9.83.32,12.46c.12,3.73.65,8.7.89,13.07l1.91,15.5ZM122,94.5C122,77.66,108.79,64,92.5,64S63,77.66,63,94.5,76.21,125,92.5,125,122,111.34,122,94.5Z" transform="translate(0)"/><path class="cls-2" d="M185.91,94.5l.09,9.83-.31,12.46c-.12,3.73-.66,8.7-.9,13.07l-1.89,15.5-9.84,64.15L165,258l-8.49-48.49-9.89-64.15-1.91-15.5c-.24-4.37-.77-9.34-.89-13.07l-.32-12.46.09-9.83h-.09a94.64,94.64,0,0,1,21.31-60A95,95,0,0,1,186,94.5Z" transform="translate(0)"/></svg>