<svg id="Layer_1" data-name="Layer 1" xmlns="http://www.w3.org/2000/svg" viewBox="0 0 330.5 264.5"><defs><style>.cls-1{fill:#ccc;}.cls-2{fill:#8a8daa;}</style></defs><title>purplelogo</title><ellipse class="cls-1" cx="165" cy="259" rx="82.5" ry="5.5"/><path class="cls-2" d="M300.1,164.2l-5.8,5.8-9.3,8.5c-2.8,2.5-6.8,5.5-10.2,8.4L262.1,196l-54.3,36L165,258l8.1-48.5,9.8-64.1,1.9-15.5c.2-4.4.8-9.3.9-13.1l.3-12.5-.1-9.8h.1a94.62,94.62,0,0,0-21.2-60.1h.1A92.6,92.6,0,0,1,237,0c51.6,0,93.5,42.3,93.5,94.5A94.6,94.6,0,0,1,300.1,164.2ZM267.2,94.5c0-16.8-13.3-30.5-29.7-30.5s-29.7,13.7-29.7,30.5S221.1,125,237.5,125,267.2,111.3,267.2,94.5Z"/><path class="cls-2" d="M156.5,209.5,165,258l-43-26L68,196l-12.7-9.1C52,184,48,181,45.2,178.5L36,170l-7-7h0A95.23,95.23,0,0,1,0,94.5C0,42.3,41.6,0,93,0a92.32,92.32,0,0,1,71.8,34.4h.1a94.72,94.72,0,0,0-21.3,60.1h.1l-.1,9.8.3,12.5c.1,3.7.6,8.7.9,13.1l1.9,15.5ZM122,94.5C122,77.7,108.8,64,92.5,64S63,77.7,63,94.5,76.2,125,92.5,125,122,111.3,122,94.5Z"/><path class="cls-2" d="M185.9,94.5l.1,9.8-.3,12.5c-.1,3.7-.7,8.7-.9,13.1l-1.9,15.5-9.8,64.1L165,258l-8.5-48.5-9.9-64.1-1.9-15.5c-.2-4.4-.8-9.3-.9-13.1l-.3-12.5.1-9.8h-.1a94.81,94.81,0,0,1,21.3-60,93.49,93.49,0,0,1,21.1,60Z"/></svg>