<?xml version="1.0" encoding="iso-8859-1"?>
<!-- Generator: Adobe Illustrator 18.0.0, SVG Export Plug-In . SVG Version: 6.00 Build 0)  -->
<!DOCTYPE svg PUBLIC "-//W3C//DTD SVG 1.1//EN" "http://www.w3.org/Graphics/SVG/1.1/DTD/svg11.dtd">
<svg version="1.1" id="Capa_1" xmlns="http://www.w3.org/2000/svg" xmlns:xlink="http://www.w3.org/1999/xlink" x="0px" y="0px"
	 viewBox="0 0 298.796 298.796" style="enable-background:new 0 0 298.796 298.796;" fill="white" xml:space="preserve">
<g>
	<g>
		<path d="M92.403,170.148l53.439-44.832l-14.99-73.318c-14.142-13.761-33.324-21.874-53.77-21.874
			C34.579,30.123,0,64.702,0,107.205c0,34.281,12.496,64.665,39.323,95.621c16.591,19.144,53.774,46.152,74.463,60.549
			c4.406,3.065,9.462,4.806,14.61,5.242l-40.363-76.039C84.014,185.008,85.836,175.657,92.403,170.148z"/>
	</g>
	<g>
		<path d="M221.714,30.123c-20.451,0-39.638,8.117-53.781,21.884l15.667,76.631c1.335,6.531-1.015,13.269-6.121,17.554
			l-50.466,42.338l42.541,80.142c5.438-0.308,10.809-2.063,15.455-5.296c20.687-14.395,57.87-41.402,74.465-60.55
			c26.827-30.956,39.323-61.34,39.323-95.621C298.796,64.702,264.217,30.123,221.714,30.123z"/>
	</g>
</g>
<g>
</g>
<g>
</g>
<g>
</g>
<g>
</g>
<g>
</g>
<g>
</g>
<g>
</g>
<g>
</g>
<g>
</g>
<g>
</g>
<g>
</g>
<g>
</g>
<g>
</g>
<g>
</g>
<g>
</g>
</svg>
