<svg height="496pt" viewBox="-56 0 496 496" width="496pt" xmlns="http://www.w3.org/2000/svg"><path d="m376 0c4.398438 0 8 3.601562 8 8v480c0 4.398438-3.601562 8-8 8h-368c-4.398438 0-8-3.601562-8-8v-480c0-4.398438 3.601562-8 8-8zm0 0" fill="#e6e9ed"/><path d="m336 368c0 4.398438-3.601562 8-8 8h-272c-4.398438 0-8-3.601562-8-8v-312c0-4.398438 3.601562-8 8-8h272c4.398438 0 8 3.601562 8 8zm0 0" fill="#ed5565"/><path d="m263.511719 192.160156h-143.03125c3.917969-36 34.488281-64 71.519531-64s67.601562 28 71.511719 64zm0 0" fill="#eac6bb"/><path d="m160 296.40625c9.601562 4.808594 20.480469 7.523438 32 7.523438 11.511719 0 22.398438-2.722657 32-7.523438v15.59375l-31.839844 32.160156-32.160156-32.160156zm0 0" fill="#eac6bb"/><path d="m287.199219 344.160156h-95.039063l31.839844-32.160156h24c19.441406 0 35.601562 13.839844 39.199219 32.160156zm0 0" fill="#e6e9ed"/><path d="m192.160156 344.160156h-95.359375c3.597657-18.320312 19.757813-32.160156 39.199219-32.160156h24zm0 0" fill="#e6e9ed"/><path d="m288 376h-192v-24c0-2.640625.238281-5.28125.800781-7.839844h190.398438c.5625 2.558594.800781 5.199219.800781 7.839844zm0 0" fill="#656d78"/><path d="m287.199219 344.160156h-16.015625c.550781 2.558594.800781 5.199219.800781 7.839844v24h16.015625v-24c0-2.640625-.238281-5.28125-.800781-7.839844zm0 0" fill="#545c66"/><g fill="#ccd1d9"><path d="m248 312h-16.015625c19.441406 0 35.601563 13.839844 39.199219 32.160156h16.015625c-3.597657-18.320312-19.757813-32.160156-39.199219-32.160156zm0 0"/><path d="m24.238281 32c-4.421875 0-8.039062-3.574219-8.039062-8 0-4.414062 3.535156-8 7.953125-8h.085937c4.417969 0 8 3.585938 8 8 0 4.425781-3.582031 8-8 8zm0 0"/><path d="m24.238281 480c-4.421875 0-8.039062-3.574219-8.039062-8s3.535156-8 7.953125-8h.085937c4.417969 0 8 3.574219 8 8s-3.582031 8-8 8zm0 0"/><path d="m360.238281 32c-4.421875 0-8.039062-3.574219-8.039062-8 0-4.414062 3.535156-8 7.953125-8h.085937c4.417969 0 8 3.585938 8 8 0 4.425781-3.582031 8-8 8zm0 0"/><path d="m360.238281 480c-4.421875 0-8.039062-3.574219-8.039062-8s3.535156-8 7.953125-8h.085937c4.417969 0 8 3.574219 8 8s-3.582031 8-8 8zm0 0"/><path d="m96 472c-4.425781 0-8-3.574219-8-8v-24c0-4.425781 3.574219-8 8-8s8 3.574219 8 8v24c0 4.425781-3.574219 8-8 8zm0 0"/><path d="m132 472c-11.03125 0-20-8.96875-20-20s8.96875-20 20-20 20 8.96875 20 20-8.96875 20-20 20zm0-24c-2.199219 0-4 1.800781-4 4s1.800781 4 4 4 4-1.800781 4-4-1.800781-4-4-4zm0 0"/><path d="m180 472c-11.03125 0-20-8.96875-20-20s8.96875-20 20-20 20 8.96875 20 20-8.96875 20-20 20zm0-24c-2.199219 0-4 1.800781-4 4s1.800781 4 4 4 4-1.800781 4-4-1.800781-4-4-4zm0 0"/><path d="m228 472c-11.03125 0-20-8.96875-20-20s8.96875-20 20-20 20 8.96875 20 20-8.96875 20-20 20zm0-24c-2.199219 0-4 1.800781-4 4s1.800781 4 4 4 4-1.800781 4-4-1.800781-4-4-4zm0 0"/><path d="m288 448h-16c-4.425781 0-8-3.574219-8-8s3.574219-8 8-8h16c4.425781 0 8 3.574219 8 8s-3.574219 8-8 8zm0 0"/><path d="m288.007812 472c-2.582031 0-5.128906-1.246094-6.664062-3.558594l-16-24c-2.457031-3.679687-1.464844-8.640625 2.214844-11.097656 3.679687-2.449219 8.648437-1.464844 11.097656 2.214844l16 24c2.457031 3.679687 1.464844 8.640625-2.214844 11.097656-1.371094.902344-2.914062 1.34375-4.433594 1.34375zm0 0"/><path d="m288 472h-16c-4.425781 0-8-3.574219-8-8s3.574219-8 8-8h16c4.425781 0 8 3.574219 8 8s-3.574219 8-8 8zm0 0"/><path d="m288 416h-192c-4.425781 0-8-3.574219-8-8s3.574219-8 8-8h192c4.425781 0 8 3.574219 8 8s-3.574219 8-8 8zm0 0"/></g><path d="m256.113281 223.871094c-2.59375 0-5.144531-1.261719-6.679687-3.589844-2.441406-3.6875-1.425782-8.640625 2.261718-11.082031l24.015626-15.871094c3.65625-2.433594 8.632812-1.425781 11.082031 2.265625 2.4375 3.6875 1.421875 8.652344-2.265625 11.09375l-24.015625 15.855469c-1.351563.90625-2.886719 1.328125-4.398438 1.328125zm0 0" fill="#434a54"/><path d="m280.113281 232c-1.527343 0-3.089843-.441406-4.457031-1.359375l-24.015625-16.128906c-3.664063-2.472657-4.640625-7.441407-2.175781-11.113281 2.464844-3.65625 7.4375-4.636719 11.101562-2.167969l24.019532 16.128906c3.660156 2.472656 4.636718 7.441406 2.175781 11.113281-1.554688 2.296875-4.074219 3.527344-6.648438 3.527344zm0 0" fill="#434a54"/><path d="m200.160156 232.078125h63.839844c-.078125 28.167969-16.320312 52.570313-40 64.328125-9.601562 4.808594-20.488281 7.523438-32 7.523438-11.519531 0-22.398438-2.722657-32-7.523438-23.679688-11.757812-39.921875-36.167969-40-64.328125h64.160156l8-8zm0 0" fill="#eac6bb"/><path d="m264 200.160156c0-2.71875-.167969-5.359375-.488281-8-3.910157-36-34.480469-64-71.511719-64-2.710938 0-5.375.191406-8.007812.488282 33.351562 3.703124 59.878906 30.152343 63.503906 63.511718.320312 2.640625.488281 5.28125.488281 8h.160156v31.761719h-.160156v.15625c-.082031 28.167969-16.320313 52.570313-40 64.328125-7.34375 3.671875-15.449219 6.105469-23.992187 7.058594 2.632812.289062 5.296874.472656 8.007812.472656 11.511719 0 22.398438-2.722656 32-7.523438 23.679688-11.757812 39.921875-36.167968 40-64.324218 0-.082032 0-.082032 0-.160156h.160156v-31.769532zm0 0" fill="#d3b1a9"/><path d="m264.160156 208v23.921875h-.160156v.15625h-63.839844l-8-8-8 8h-64v-31.917969h-.160156c0-2.71875.160156-5.359375.480469-8h143.039062c.320313 2.640625.488281 5.28125.488281 8h.160157v7.839844zm0 0" fill="#656d78"/><path d="m264 200.160156c0-2.71875-.167969-5.359375-.488281-8h-16.015625c.320312 2.640625.488281 5.28125.488281 8h.160156v31.761719h-.160156v.15625h16.015625c0-.078125 0-.078125 0-.15625h.160156v-31.761719zm0 0" fill="#545c66"/><path d="m168.128906 216.144531h-16c-4.425781 0-8-3.578125-8-8 0-4.425781 3.574219-8 8-8h16c4.421875 0 8 3.574219 8 8 0 4.421875-3.585937 8-8 8zm0 0" fill="#eac6bb"/><path d="m232.128906 216.144531h-16c-4.425781 0-8-3.578125-8-8 0-4.425781 3.574219-8 8-8h16c4.421875 0 8 3.574219 8 8 0 4.421875-3.585937 8-8 8zm0 0" fill="#eac6bb"/><path d="m144.128906 200.007812h32v8.136719h-32zm0 0" fill="#eac6bb"/><path d="m208.128906 200.007812h32v8.136719h-32zm0 0" fill="#eac6bb"/></svg>