<svg height="496pt" viewBox="0 -24 496 496" width="496pt" xmlns="http://www.w3.org/2000/svg"><path d="m287.992188 152c-3.351563 0-6.472657-2.113281-7.585938-5.472656-1.398438-4.183594.867188-8.71875 5.058594-10.113282l24-8c4.230468-1.40625 8.71875.859376 10.121094 5.050782 1.398437 4.199218-.867188 8.734375-5.058594 10.128906l-24 8c-.847656.277344-1.695313.40625-2.535156.40625zm0 0" fill="#434a54"/><path d="m311.992188 168.015625c-.832032 0-1.695313-.144531-2.527344-.421875l-24-8c-4.191406-1.410156-6.457032-5.9375-5.058594-10.128906 1.402344-4.191406 5.929688-6.457032 10.121094-5.050782l24 8c4.191406 1.410157 6.457031 5.9375 5.058594 10.128907-1.121094 3.34375-4.242188 5.472656-7.59375 5.472656zm0 0" fill="#434a54"/><path d="m56 120c0-66.230469 53.769531-120 120-120 66.320312 0 120 53.769531 120 120zm0 0" fill="#eac6bb"/><path d="m192 176h104c0 46.078125-25.921875 86.078125-64 106.160156-7.511719 4-15.601562 7.199219-24 9.527344-10.160156 2.800781-20.871094 4.3125-32 4.3125-11.039062 0-21.832031-1.511719-32-4.3125-8.398438-2.328125-16.480469-5.527344-24-9.527344-38.078125-20.082031-64-60.082031-64-106.160156h104l16-8zm0 0" fill="#eac6bb"/><path d="m176 0c-5.441406 0-10.761719.503906-16.007812 1.199219 58.710937 7.847656 103.976562 58 103.976562 118.800781h.03125v16c0 .113281-.03125.199219-.03125.3125v39.6875c0 46.078125-25.921875 86.078125-64 106.160156-7.511719 4-15.601562 7.199219-24 9.527344-5.175781 1.425781-10.511719 2.503906-15.96875 3.234375 5.246094.703125 10.59375 1.078125 16 1.078125 11.128906 0 21.839844-1.511719 32-4.3125 8.398438-2.328125 16.488281-5.527344 24-9.527344 38.078125-20.082031 64-60.082031 64-106.160156v-56c0-66.230469-53.679688-120-120-120zm0 0" fill="#d3b1a9"/><path d="m448 184-32 50.078125c-5.191406-1.359375-10.550781-2.078125-16-2.078125-5.441406 0-10.800781.71875-16 2.078125l-32-50.078125s24-16 48 0 48 0 48 0zm0 0" fill="#da4453"/><path d="m400.167969 303.441406c26.480469 0 48 21.511719 48 48 0 26.558594-21.519531 48-48 48-26.488281 0-48-21.441406-48-48 0-26.488281 21.511719-48 48-48zm0 0" fill="#ffce54"/><path d="m416 234.078125c45.449219 11.515625 80 70.3125 80 117.921875 0 53.03125-42.960938 96-96 96-17.441406 0-33.832031-4.640625-48-12.886719-28.640625-16.554687-48-47.601562-48-83.113281 0-9.359375 1.359375-19.199219 3.839844-28.96875 10.238281-39.933594 39.753906-79.671875 76.160156-88.953125 5.199219-1.359375 10.558594-2.078125 16-2.078125 5.449219 0 10.808594.71875 16 2.078125zm32.167969 117.363281c0-26.488281-21.519531-48-48-48-26.488281 0-48 21.511719-48 48 0 26.558594 21.511719 48 48 48 26.472656 0 48-21.441406 48-48zm0 0" fill="#ed5565"/><path d="m416 234.078125c-5.191406-1.359375-10.550781-2.078125-16-2.078125-4.070312 0-8.0625.511719-12.007812 1.296875 1.328124.246094 2.671874.4375 3.984374.78125 45.449219 11.515625 80 70.3125 80 117.921875 0 49.015625-36.710937 89.34375-84.144531 95.183594 4 .503906 8.046875.816406 12.167969.816406 53.039062 0 96-42.96875 96-96 0-47.609375-34.550781-106.40625-80-117.921875zm0 0" fill="#da4453"/><path d="m152 120h144v56h-104l-16-8-16 8h-104v-56zm0 0" fill="#656d78"/><path d="m264 120v16c0 .113281-.03125.199219-.03125.3125v39.6875h32.03125v-56zm0 0" fill="#545c66"/><path d="m120 320s4.078125 12.3125 24 19.28125c7.921875 2.796875 18.320312 4.71875 32 4.71875s24.078125-1.921875 32-4.71875c19.921875-6.96875 24-19.28125 24-19.28125h56c6.640625 0 13.039062 1.03125 19.128906 2.871094l.71875.160156c-2.488281 9.769531-3.847656 19.609375-3.847656 28.96875 0 35.511719 19.359375 66.558594 48 83.113281v4.886719c0 4.390625-3.511719 8-8 8h-335.921875c-4.476563 0-8-3.609375-8-8l-.078125-56c0-35.359375 28.640625-64 64.078125-64zm0 0" fill="#545c66"/><path d="m208 291.6875c-10.160156 2.800781-20.871094 4.3125-32 4.3125-11.039062 0-21.832031-1.511719-32-4.3125-8.398438-2.328125-16.480469-5.527344-24-9.527344v37.839844s4.078125 12.3125 24 19.28125c7.921875 2.796875 18.320312 4.71875 32 4.71875s24.078125-1.921875 32-4.71875c19.921875-6.96875 24-19.28125 24-19.28125v-37.839844c-7.511719 4-15.601562 7.199219-24 9.527344zm0 0" fill="#656d78"/><g fill="#d3b1a9"><path d="m240.238281 80c-4.421875 0-8.039062-3.574219-8.039062-8s3.535156-8 7.953125-8h.085937c4.417969 0 8 3.574219 8 8s-3.582031 8-8 8zm0 0"/><path d="m208.238281 32c-4.421875 0-8.039062-3.574219-8.039062-8s3.535156-8 7.953125-8h.085937c4.417969 0 8 3.574219 8 8s-3.582031 8-8 8zm0 0"/><path d="m176.238281 32c-4.421875 0-8.039062-3.574219-8.039062-8s3.535156-8 7.953125-8h.085937c4.417969 0 8 3.574219 8 8s-3.582031 8-8 8zm0 0"/><path d="m144.238281 32c-4.421875 0-8.039062-3.574219-8.039062-8s3.535156-8 7.953125-8h.085937c4.417969 0 8 3.574219 8 8s-3.582031 8-8 8zm0 0"/><path d="m112.238281 32c4.417969 0 8-3.574219 8-8 0-3.328125-2.03125-6.167969-4.917969-7.375-3.847656 2.261719-7.542968 4.734375-11.113281 7.40625.023438 4.410156 3.625 7.96875 8.03125 7.96875zm0 0"/><path d="m224.238281 56c-4.421875 0-8.039062-3.574219-8.039062-8s3.535156-8 7.953125-8h.085937c4.417969 0 8 3.574219 8 8s-3.582031 8-8 8zm0 0"/><path d="m192.238281 56c-4.421875 0-8.039062-3.574219-8.039062-8s3.535156-8 7.953125-8h.085937c4.417969 0 8 3.574219 8 8s-3.582031 8-8 8zm0 0"/><path d="m160.238281 56c-4.421875 0-8.039062-3.574219-8.039062-8s3.535156-8 7.953125-8h.085937c4.417969 0 8 3.574219 8 8s-3.582031 8-8 8zm0 0"/><path d="m128.238281 56c-4.421875 0-8.039062-3.574219-8.039062-8s3.535156-8 7.953125-8h.085937c4.417969 0 8 3.574219 8 8s-3.582031 8-8 8zm0 0"/><path d="m96.238281 56c-4.421875 0-8.039062-3.574219-8.039062-8s3.535156-8 7.953125-8h.085937c4.417969 0 8 3.574219 8 8s-3.582031 8-8 8zm0 0"/><path d="m192.238281 104c-4.421875 0-8.039062-3.574219-8.039062-8s3.535156-8 7.953125-8h.085937c4.417969 0 8 3.574219 8 8s-3.582031 8-8 8zm0 0"/><path d="m160.238281 104c-4.421875 0-8.039062-3.574219-8.039062-8s3.535156-8 7.953125-8h.085937c4.417969 0 8 3.574219 8 8s-3.582031 8-8 8zm0 0"/><path d="m64.238281 104c4.417969 0 8-3.574219 8-8s-3.582031-8-8-8h-.078125c-1.503906 0-2.832031.527344-4.023437 1.246094-.96875 3.65625-1.777344 7.394531-2.402344 11.1875 1.449219 2.09375 3.769531 3.566406 6.503906 3.566406zm0 0"/><path d="m208.238281 80c-4.421875 0-8.039062-3.574219-8.039062-8s3.535156-8 7.953125-8h.085937c4.417969 0 8 3.574219 8 8s-3.582031 8-8 8zm0 0"/><path d="m176.238281 80c-4.421875 0-8.039062-3.574219-8.039062-8s3.535156-8 7.953125-8h.085937c4.417969 0 8 3.574219 8 8s-3.582031 8-8 8zm0 0"/><path d="m144.238281 80c-4.421875 0-8.039062-3.574219-8.039062-8s3.535156-8 7.953125-8h.085937c4.417969 0 8 3.574219 8 8s-3.582031 8-8 8zm0 0"/><path d="m112.238281 80c-4.421875 0-8.039062-3.574219-8.039062-8s3.535156-8 7.953125-8h.085937c4.417969 0 8 3.574219 8 8s-3.582031 8-8 8zm0 0"/><path d="m80.238281 80c-4.421875 0-8.039062-3.574219-8.039062-8s3.535156-8 7.953125-8h.085937c4.417969 0 8 3.574219 8 8s-3.582031 8-8 8zm0 0"/></g><path d="m168 295.734375v47.984375c2.558594.136719 5.167969.28125 8 .28125s5.441406-.144531 8-.28125v-47.984375c-2.640625.167969-5.304688.265625-8 .265625-2.6875 0-5.351562-.097656-8-.265625zm0 0" fill="#545c66"/><path d="m200 293.59375v47.917969c2.878906-.65625 5.59375-1.390625 8-2.230469 3.0625-1.082031 5.640625-2.296875 8-3.546875v-46.734375c-2.648438.9375-5.273438 1.9375-8 2.6875-2.625.71875-5.296875 1.34375-8 1.90625zm0 0" fill="#545c66"/><path d="m136 289v46.734375c2.359375 1.25 4.9375 2.472656 8 3.546875 2.40625.839844 5.121094 1.574219 8 2.230469v-47.9375c-2.703125-.542969-5.375-1.167969-8-1.886719-2.726562-.75-5.351562-1.75-8-2.6875zm0 0" fill="#545c66"/><path d="m400 376c-4.425781 0-8-3.574219-8-8v-32c0-4.425781 3.574219-8 8-8s8 3.574219 8 8v32c0 4.425781-3.574219 8-8 8zm0 0" fill="#edab37"/><path d="m56 120h207.96875v16.015625h-207.96875zm0 0" fill="#656d78"/><path d="m152 136.015625v8c0 8.871094-7.121094 16-16 16h-23.992188c-8.800781 0-16-7.128906-16-16v-8zm0 0" fill="#eac6bb"/><path d="m255.992188 136.015625v8c0 8.871094-7.121094 16-16 16h-23.992188c-8.800781 0-16-7.128906-16-16v-8zm0 0" fill="#eac6bb"/></svg>