<svg height="512pt" viewBox="-24 0 512 512.016" width="512pt" xmlns="http://www.w3.org/2000/svg"><path d="m8.007812 7.976562h448v496.0625h-448zm0 0" fill="#656d78"/><path d="m343.847656 168.136719c0-26.480469-21.441406-48-48-48v-32h-80c-51.359375 0-93.28125 40.320312-95.839844 91.046875v52.800781l23.839844-23.839844s44.558594 16 88 16h.160156c43.359376 0 87.839844-16 87.839844-16l24 24h.160156v-64h-.160156zm0 0" fill="#965353"/><path d="m295.847656 144.136719c13.230469 0 24 10.765625 24 24 0 .933593.046875 1.855469.160156 2.773437v37.394532l23.839844 23.832031h.160156v-64h-.160156c0-26.480469-21.441406-48-48-48v-32h-24v32c0 13.253906 10.753906 24 24 24zm0 0" fill="#844747"/><path d="m343.847656 232.136719-24-24s-44.488281 16-87.839844 16c-.078124 0-.078124 0-.160156 0-43.441406 0-88-16-88-16l-23.839844 23.839843v37.847657c2 39.199219 24.160157 73.128906 56.328126 91.519531 16.3125 9.359375 35.265624 14.71875 55.511718 14.71875h.160156c20.160157 0 39.046876-5.359375 55.359376-14.71875 33.769531-19.28125 56.488281-55.589844 56.488281-97.28125h.152343v-31.933594h-.160156zm0 0" fill="#eac6bb"/><path d="m343.847656 232.136719-23.855468-23.847657v55.789063h-.160157c0 41.691406-22.71875 78-56.488281 97.28125-13.046875 7.496094-27.769531 12.359375-43.457031 14.03125 3.9375.417969 7.90625.6875 11.953125.6875h.160156c20.160156 0 39.046875-5.359375 55.359375-14.71875 33.769531-19.28125 56.488281-55.589844 56.488281-97.28125h.160156v-31.933594h-.160156zm0 0" fill="#d3b1a9"/><path d="m287.367188 361.351562c-16.3125 9.359376-35.199219 14.71875-55.359376 14.71875-.078124 0-.078124 0-.160156 0-20.246094 0-39.199218-5.359374-55.511718-14.71875l-.488282.878907v29.808593l56.082032 56 .078124-.078124 55.839844-55.921876v-29.808593zm0 0" fill="#eac6bb"/><path d="m344.007812 392.601562c-2.640624-.402343-5.359374-.5625-8.160156-.5625h-48l-55.839844 55.921876v.078124h-.078124l-56.082032-56h-48c-2.640625 0-5.28125.167969-7.839844.488282-31.671874 3.832031-56.160156 30.800781-56.160156 63.511718v48h336v-48c0-32.550781-24.328125-59.519531-55.839844-63.4375zm0 0" fill="#fc6e51"/><path d="m344.007812 392.601562c-2.640624-.402343-5.359374-.5625-8.160156-.5625h-24.015625c2.800781 0 5.511719.167969 8.160157.5625 31.527343 3.917969 55.839843 30.878907 55.839843 63.4375v48h24.015625v-48c0-32.550781-24.328125-59.519531-55.839844-63.4375zm0 0" fill="#e9573f"/><g fill="#e6e9ed"><path d="m456.007812 512.015625c-4.421874 0-8-3.574219-8-8v-496.015625c0-4.414062 3.578126-8 8-8 4.425782 0 8 3.585938 8 8v496.015625c0 4.425781-3.574218 8-8 8zm0 0"/><path d="m344.007812 512.015625c-4.421874 0-8-3.574219-8-8v-496.015625c0-4.414062 3.578126-8 8-8 4.425782 0 8 3.585938 8 8v496.015625c0 4.425781-3.574218 8-8 8zm0 0"/><path d="m232.007812 512.015625c-4.421874 0-8-3.574219-8-8v-496.015625c0-4.414062 3.578126-8 8-8 4.425782 0 8 3.585938 8 8v496.015625c0 4.425781-3.574218 8-8 8zm0 0"/><path d="m120.007812 512.015625c-4.421874 0-8-3.574219-8-8v-496.015625c0-4.414062 3.578126-8 8-8 4.425782 0 8 3.585938 8 8v496.015625c0 4.425781-3.574218 8-8 8zm0 0"/><path d="m8.007812 512.015625c-4.421874 0-7.9999995-3.574219-7.9999995-8v-496.015625c0-4.414062 3.5781255-8 7.9999995-8 4.425782 0 8 3.585938 8 8v496.015625c0 4.425781-3.574218 8-8 8zm0 0"/></g></svg>