<svg height="494pt" viewBox="-15 0 494 494.912" width="494pt" xmlns="http://www.w3.org/2000/svg"><path d="m8.632812 7.046875h448.078126v479.839844h-448.078126zm0 0" fill="#e6e9ed"/><path d="m456.550781 494.910156h-448.09375c-4.425781 0-8-3.574218-8-8 0-4.421875 3.574219-8 8-8h448.09375c4.425781 0 8 3.578125 8 8 0 4.425782-3.574219 8-8 8zm0 0" fill="#ccd1d9"/><path d="m456.550781 447.015625h-448.09375c-4.425781 0-8-3.574219-8-8 0-4.421875 3.574219-8 8-8h448.09375c4.425781 0 8 3.578125 8 8 0 4.425781-3.574219 8-8 8zm0 0" fill="#ccd1d9"/><path d="m456.550781 399.128906h-448.09375c-4.425781 0-8-3.578125-8-8 0-4.425781 3.574219-8 8-8h448.09375c4.425781 0 8 3.574219 8 8 0 4.421875-3.574219 8-8 8zm0 0" fill="#ccd1d9"/><path d="m456.550781 351.238281h-448.09375c-4.425781 0-8-3.574219-8-8 0-4.421875 3.574219-8 8-8h448.09375c4.425781 0 8 3.578125 8 8 0 4.425781-3.574219 8-8 8zm0 0" fill="#ccd1d9"/><path d="m124.078125 359.046875c1.441406-.078125 2.875-.160156 4.394531-.160156h48l56.078125 40h.082031l55.839844-39.917969h48c1.128906 0 2.246094 0 3.28125.078125 22.324219 1.121094 41.6875 13.679687 52.15625 32 5.457032 9.359375 8.5625 20.320313 8.5625 31.921875v71.925781h-336v-71.925781c0-11.601562 3.128906-22.488281 8.558594-31.921875 10.242188-18 29.128906-30.558594 51.046875-32zm0 0" fill="#fc6e51"/><path d="m344.632812 359.457031c-2.640624-.402343-5.359374-.5625-8.160156-.5625h-24.015625c2.800781 0 5.511719.167969 8.160157.5625 31.527343 3.917969 55.839843 30.878907 55.839843 63.4375v72.007813h24.015625v-72.007813c0-32.558593-24.328125-59.519531-55.839844-63.4375zm0 0" fill="#e9573f"/><path d="m296.472656 431.015625h-128c-4.394531 0-8 3.601563-8 8v55.746094h144v-55.738281c0-4.398438-3.59375-8.007813-8-8.007813zm0 0" fill="#e6e9ed"/><g fill="#ccd1d9"><path d="m456.550781 303.34375h-448.09375c-4.425781 0-8-3.574219-8-8 0-4.421875 3.574219-8 8-8h448.09375c4.425781 0 8 3.578125 8 8 0 4.425781-3.574219 8-8 8zm0 0"/><path d="m456.550781 255.457031h-448.09375c-4.425781 0-8-3.578125-8-8 0-4.425781 3.574219-8 8-8h448.09375c4.425781 0 8 3.574219 8 8 0 4.421875-3.574219 8-8 8zm0 0"/><path d="m456.550781 207.566406h-448.09375c-4.425781 0-8-3.574218-8-8 0-4.421875 3.574219-8 8-8h448.09375c4.425781 0 8 3.578125 8 8 0 4.425782-3.574219 8-8 8zm0 0"/><path d="m456.550781 159.671875h-448.09375c-4.425781 0-8-3.574219-8-8s3.574219-8 8-8h448.09375c4.425781 0 8 3.574219 8 8s-3.574219 8-8 8zm0 0"/><path d="m456.550781 111.785156h-448.09375c-4.425781 0-8-3.578125-8-8 0-4.425781 3.574219-8 8-8h448.09375c4.425781 0 8 3.574219 8 8 0 4.421875-3.574219 8-8 8zm0 0"/><path d="m456.550781 63.894531h-448.09375c-4.425781 0-8-3.574219-8-8 0-4.421875 3.574219-8 8-8h448.09375c4.425781 0 8 3.578125 8 8 0 4.425781-3.574219 8-8 8zm0 0"/><path d="m456.550781 16h-448.09375c-4.425781 0-8-3.574219-8-8s3.574219-8 8-8h448.09375c4.425781 0 8 3.574219 8 8s-3.574219 8-8 8zm0 0"/></g><path d="m125.910156 111.046875c4.25-11.917969 10.722656-22.800781 18.96875-32 17.59375-19.671875 43.128906-32 71.59375-32h80v32c20.96875 0 38.71875 13.359375 45.28125 32 1.765625 5.050781 2.71875 10.410156 2.71875 16h.160156v64h-.160156l-24-24s-44.5625 16-88 16c-43.441406 0-88-16-88-16l-23.839844 23.839844v-47.839844h-.160156c0-11.199219 1.917969-22 5.4375-32zm0 0" fill="#965353"/><path d="m344.472656 222.894531c0 41.691407-22.71875 78.007813-56.472656 97.28125-16.40625 9.359375-35.375 14.726563-55.527344 14.726563-20.234375 0-39.199218-5.367188-55.511718-14.726563-8.328126-4.71875-15.921876-10.480469-22.722657-17.121093-9.4375-9.199219-17.199219-20-22.871093-32-6.96875-14.558594-10.886719-30.878907-10.886719-48.167969h.160156v-32l23.839844-23.839844s44.558593 16 88 16c43.441406 0 88-16 88-16l24 24h.160156v31.839844h-.167969zm0 0" fill="#eac6bb"/><path d="m176.472656 335.054688v-14l.488282-.878907c16.3125 9.359375 35.277343 14.726563 55.511718 14.726563 20.160156 0 39.128906-5.367188 55.527344-14.726563l.472656.878907v37.914062l-55.839844 39.917969h-.082031l-56.078125-40zm0 0" fill="#eac6bb"/><path d="m296.472656 103.046875c13.230469 0 24 10.769531 24 24 0 .9375.046875 1.855469.160156 2.769531v37.390625l23.839844 23.839844h.160156v-64h-.160156c0-26.472656-21.441406-48-48-48v-32h-24v32c0 13.25 10.75 24 24 24zm0 0" fill="#844747"/><path d="m344.472656 191.046875-23.855468-23.839844v55.769531h-.160157c0 41.695313-22.722656 78.007813-56.488281 97.289063-13.046875 7.496094-27.769531 12.359375-43.457031 14.03125 3.9375.414063 7.902343.6875 11.953125.6875h.160156c20.160156 0 39.046875-5.359375 55.359375-14.71875 33.769531-19.28125 56.488281-55.59375 56.488281-97.289063h.160156v-31.921874h-.160156zm0 0" fill="#d3b1a9"/><path d="m199.960938 478.328125c-2.050782 0-4.097657-.785156-5.65625-2.34375l-15.441407-15.441406c-3.128906-3.128907-3.128906-8.183594 0-11.3125 3.128907-3.125 8.183594-3.125 11.3125 0l15.441407 15.441406c3.125 3.128906 3.125 8.183594 0 11.3125-1.570313 1.566406-3.609376 2.34375-5.65625 2.34375zm0 0" fill="#ccd1d9"/><path d="m184.519531 478.894531c-2.046875 0-4.09375-.78125-5.65625-2.34375-3.128906-3.125-3.128906-8.183593 0-11.3125l16-16c3.128907-3.125 8.183594-3.125 11.3125 0 3.128907 3.128907 3.128907 8.1875 0 11.3125l-16 16c-1.558593 1.5625-3.609375 2.34375-5.65625 2.34375zm0 0" fill="#ccd1d9"/><path d="m239.960938 478.328125c-2.050782 0-4.097657-.785156-5.65625-2.34375l-15.441407-15.441406c-3.128906-3.128907-3.128906-8.183594 0-11.3125 3.128907-3.125 8.183594-3.125 11.3125 0l15.441407 15.441406c3.125 3.128906 3.125 8.183594 0 11.3125-1.570313 1.566406-3.609376 2.34375-5.65625 2.34375zm0 0" fill="#ccd1d9"/><path d="m224.519531 478.894531c-2.046875 0-4.09375-.78125-5.65625-2.34375-3.128906-3.125-3.128906-8.183593 0-11.3125l16-16c3.128907-3.125 8.183594-3.125 11.3125 0 3.128907 3.128907 3.128907 8.1875 0 11.3125l-16 16c-1.558593 1.5625-3.609375 2.34375-5.65625 2.34375zm0 0" fill="#ccd1d9"/><path d="m279.976562 478.328125c-2.046874 0-4.097656-.785156-5.65625-2.34375l-15.441406-15.441406c-3.125-3.128907-3.125-8.183594 0-11.3125 3.128906-3.125 8.183594-3.125 11.3125 0l15.441406 15.441406c3.128907 3.128906 3.128907 8.183594 0 11.3125-1.570312 1.566406-3.617187 2.34375-5.65625 2.34375zm0 0" fill="#ccd1d9"/><path d="m264.535156 478.894531c-2.046875 0-4.09375-.78125-5.65625-2.34375-3.125-3.125-3.125-8.183593 0-11.3125l16-16c3.128906-3.125 8.183594-3.125 11.3125 0 3.128906 3.128907 3.128906 8.1875 0 11.3125l-16 16c-1.558594 1.5625-3.605468 2.34375-5.65625 2.34375zm0 0" fill="#ccd1d9"/></svg>