<?xml version="1.0" standalone="no"?>
<!DOCTYPE svg PUBLIC "-//W3C//DTD SVG 20010904//EN"
 "http://www.w3.org/TR/2001/REC-SVG-20010904/DTD/svg10.dtd">
<svg version="1.0" xmlns="http://www.w3.org/2000/svg"
 width="662.000000pt" height="662.000000pt" viewBox="0 0 662.000000 662.000000"
 preserveAspectRatio="xMidYMid meet">
<metadata>
Created by potrace 1.11, written by Peter Selinger 2001-2013
</metadata>
<g transform="translate(0.000000,662.000000) scale(0.100000,-0.100000)"
fill="#000000" stroke="none">
<path d="M1680 5953 c-45 -7 -194 -32 -225 -38 -72 -14 -227 -66 -315 -105
-52 -23 -103 -44 -112 -47 -10 -3 -18 -9 -18 -14 0 -5 -9 -9 -20 -9 -11 0 -20
-3 -20 -8 0 -4 -17 -16 -37 -27 -21 -10 -52 -29 -70 -42 -17 -13 -34 -23 -37
-23 -3 0 -14 -6 -23 -14 -10 -8 -52 -41 -94 -74 -294 -234 -514 -562 -629
-937 -12 -38 -24 -81 -26 -95 -2 -14 -9 -45 -14 -70 -11 -52 -17 -84 -27 -160
-10 -69 -9 -386 1 -459 12 -82 31 -187 42 -223 3 -9 6 -25 8 -35 24 -121 208
-533 239 -533 4 0 7 -5 7 -10 0 -10 36 -67 50 -80 3 -3 17 -21 30 -40 42 -60
70 -90 245 -265 167 -168 250 -246 334 -315 71 -59 85 -71 112 -95 15 -13 36
-28 49 -35 12 -6 29 -18 38 -27 9 -8 58 -44 107 -79 50 -35 95 -67 100 -71 6
-5 28 -20 50 -33 22 -13 42 -28 43 -32 2 -4 10 -8 18 -8 8 0 14 -4 14 -9 0 -5
13 -14 29 -21 16 -6 37 -19 47 -28 11 -9 64 -46 119 -82 55 -36 102 -68 103
-72 2 -5 10 -8 18 -8 8 0 14 -4 14 -8 0 -5 12 -15 28 -23 37 -19 86 -52 90
-61 2 -5 10 -8 18 -8 8 0 14 -3 14 -8 0 -4 20 -18 45 -31 25 -13 45 -28 45
-32 0 -5 6 -9 14 -9 8 0 16 -3 18 -7 2 -5 41 -33 88 -63 47 -30 87 -58 88 -62
2 -5 7 -8 12 -8 5 0 44 -24 87 -54 67 -46 114 -75 191 -121 30 -18 232 -139
258 -155 13 -8 91 -55 173 -105 82 -49 148 -91 147 -92 -1 -2 -133 -5 -292 -9
-480 -9 -843 -27 -974 -49 -14 -2 -48 -7 -76 -10 -85 -9 -136 -25 -148 -44 -8
-12 72 -36 149 -46 28 -4 64 -9 80 -11 17 -3 55 -7 85 -9 30 -2 87 -6 125 -9
302 -24 558 -30 1205 -30 554 -1 776 4 1055 20 167 9 296 20 380 30 22 3 58 7
80 10 22 3 64 12 94 20 48 14 52 17 39 30 -8 9 -24 17 -34 19 -10 2 -19 4 -19
5 0 5 -141 24 -255 35 -229 22 -696 41 -1099 44 l-84 1 37 25 c20 14 39 25 42
25 3 0 32 18 65 40 33 22 62 40 65 40 2 0 39 22 82 49 43 27 148 91 232 141
174 105 773 499 778 512 2 4 8 8 13 8 5 0 46 25 90 55 44 30 84 55 89 55 4 0
10 3 12 8 3 7 115 84 133 91 6 2 26 17 46 32 20 16 39 29 43 29 3 0 51 33 107
72 56 40 122 87 148 105 47 33 96 70 115 88 6 6 33 28 61 50 58 46 47 37 161
140 103 93 364 354 411 411 89 109 189 266 240 374 11 25 30 65 42 90 44 96
109 320 127 440 3 25 8 59 11 75 8 48 8 395 0 455 -4 30 -12 82 -18 115 -6 33
-12 69 -14 80 -2 11 -4 20 -5 20 -1 0 -3 7 -5 16 -1 9 -11 43 -21 75 -9 33
-18 64 -19 69 -6 26 -77 201 -86 209 -5 6 -9 18 -9 28 0 10 -4 18 -10 18 -5 0
-10 6 -10 13 0 19 -112 200 -178 287 -59 79 -223 249 -307 318 -27 23 -81 63
-120 89 -38 26 -73 52 -77 58 -4 5 -8 6 -8 1 0 -5 -8 -2 -17 7 -27 23 -186
103 -267 133 -39 14 -78 30 -88 34 -34 18 -246 68 -363 86 -65 10 -396 11
-460 1 -27 -5 -66 -10 -85 -13 -98 -14 -295 -69 -375 -103 -11 -5 -38 -17 -60
-26 -35 -15 -118 -56 -180 -89 -11 -6 -23 -15 -27 -21 -5 -7 -8 -7 -8 0 0 6
-3 6 -8 0 -4 -6 -36 -29 -72 -53 -36 -23 -75 -50 -86 -59 -10 -10 -42 -36 -69
-58 -57 -45 -188 -175 -225 -222 l-24 -31 -121 122 c-66 67 -137 135 -159 151
-21 17 -43 35 -50 40 -51 47 -376 235 -376 218 0 -3 -6 -1 -12 4 -22 17 -222
87 -283 99 -11 2 -42 8 -70 14 -27 6 -65 13 -84 16 -18 3 -43 8 -55 11 -26 6
-381 11 -416 6z m318 -1293 c124 -39 225 -105 311 -206 31 -37 81 -130 101
-188 18 -54 36 -164 34 -206 -10 -182 -65 -312 -184 -430 -94 -93 -168 -132
-315 -167 -55 -13 -203 -5 -245 14 -8 3 -24 8 -34 10 -39 7 -155 77 -203 122
-76 71 -148 182 -168 256 -5 17 -10 37 -12 45 -20 69 -22 203 -6 284 24 118
106 265 183 329 92 77 202 132 284 142 22 3 41 7 43 9 8 8 176 -3 211 -14z
m2870 6 c158 -32 300 -130 386 -269 69 -111 87 -173 92 -307 4 -131 -12 -204
-72 -320 -38 -74 -144 -189 -209 -227 -303 -177 -664 -73 -834 240 -17 31 -28
57 -26 57 3 0 1 9 -5 21 -41 75 -46 263 -12 379 27 92 78 180 143 247 72 75
87 87 159 123 114 58 262 80 378 56z"/>
</g>
</svg>
